<?xml version="1.0" encoding="UTF-8" standalone="no"?>
<!DOCTYPE svg PUBLIC "-//W3C//DTD SVG 1.1//EN"
 "http://www.w3.org/Graphics/SVG/1.1/DTD/svg11.dtd">
<!-- Generated by graphviz version 2.43.0 (0)
 -->
<!-- Title: %3 Pages: 1 -->
<svg width="997pt" height="877pt"
 viewBox="0.00 0.00 997.00 877.00" xmlns="http://www.w3.org/2000/svg" xmlns:xlink="http://www.w3.org/1999/xlink">
<g id="graph0" class="graph" transform="scale(1 1) rotate(0) translate(4 873)">
<title>%3</title>
<polygon fill="white" stroke="transparent" points="-4,4 -4,-873 993,-873 993,4 -4,4"/>
<!-- 1 -->
<g id="node1" class="node">
<title>1</title>
<polygon fill="#ff0000" stroke="#ff0000" points="388.5,-869 333.5,-869 333.5,-828 388.5,-828 388.5,-869"/>
<text text-anchor="middle" x="361" y="-857" font-family="Arial" font-size="10.00" fill="#ffffff">main</text>
<text text-anchor="middle" x="361" y="-846" font-family="Arial" font-size="10.00" fill="#ffffff">100.00%</text>
<text text-anchor="middle" x="361" y="-835" font-family="Arial" font-size="10.00" fill="#ffffff">(0.00%)</text>
</g>
<!-- 2 -->
<g id="node2" class="node">
<title>2</title>
<polygon fill="#ff0000" stroke="#ff0000" points="388.5,-788 333.5,-788 333.5,-736 388.5,-736 388.5,-788"/>
<text text-anchor="middle" x="361" y="-776" font-family="Arial" font-size="10.00" fill="#ffffff">iterate</text>
<text text-anchor="middle" x="361" y="-765" font-family="Arial" font-size="10.00" fill="#ffffff">100.00%</text>
<text text-anchor="middle" x="361" y="-754" font-family="Arial" font-size="10.00" fill="#ffffff">(0.00%)</text>
<text text-anchor="middle" x="361" y="-743" font-family="Arial" font-size="10.00" fill="#ffffff">6×</text>
</g>
<!-- 1&#45;&gt;2 -->
<g id="edge1" class="edge">
<title>1&#45;&gt;2</title>
<path fill="none" stroke="#ff0000" stroke-width="4" d="M361,-827.9C361,-819.14 361,-808.55 361,-798.47"/>
<polygon fill="#ff0000" stroke="#ff0000" stroke-width="4" points="364.5,-798.27 361,-788.27 357.5,-798.27 364.5,-798.27"/>
<text text-anchor="middle" x="380.5" y="-811" font-family="Arial" font-size="10.00" fill="#ff0000">100.00%</text>
<text text-anchor="middle" x="380.5" y="-800" font-family="Arial" font-size="10.00" fill="#ff0000">6×</text>
</g>
<!-- 3 -->
<g id="node3" class="node">
<title>3</title>
<polygon fill="#ff0100" stroke="#ff0100" points="403.5,-696 318.5,-696 318.5,-644 403.5,-644 403.5,-696"/>
<text text-anchor="middle" x="361" y="-684" font-family="Arial" font-size="10.00" fill="#ffffff">core_bench_list</text>
<text text-anchor="middle" x="361" y="-673" font-family="Arial" font-size="10.00" fill="#ffffff">99.94%</text>
<text text-anchor="middle" x="361" y="-662" font-family="Arial" font-size="10.00" fill="#ffffff">(3.15%)</text>
<text text-anchor="middle" x="361" y="-651" font-family="Arial" font-size="10.00" fill="#ffffff">1022220×</text>
</g>
<!-- 2&#45;&gt;3 -->
<g id="edge2" class="edge">
<title>2&#45;&gt;3</title>
<path fill="none" stroke="#ff0100" stroke-width="4" d="M361,-735.93C361,-726.74 361,-716.17 361,-706.25"/>
<polygon fill="#ff0100" stroke="#ff0100" stroke-width="4" points="364.5,-706.25 361,-696.25 357.5,-706.25 364.5,-706.25"/>
<text text-anchor="middle" x="382.5" y="-719" font-family="Arial" font-size="10.00" fill="#ff0100">99.94%</text>
<text text-anchor="middle" x="382.5" y="-708" font-family="Arial" font-size="10.00" fill="#ff0100">1022220×</text>
</g>
<!-- 4 -->
<g id="node4" class="node">
<title>4</title>
<polygon fill="#0ab026" stroke="#0ab026" points="412,-604 310,-604 310,-552 412,-552 412,-604"/>
<text text-anchor="middle" x="361" y="-592" font-family="Arial" font-size="10.00" fill="#ffffff">core_list_mergesort</text>
<text text-anchor="middle" x="361" y="-581" font-family="Arial" font-size="10.00" fill="#ffffff">45.74%</text>
<text text-anchor="middle" x="361" y="-570" font-family="Arial" font-size="10.00" fill="#ffffff">(1.35%)</text>
<text text-anchor="middle" x="361" y="-559" font-family="Arial" font-size="10.00" fill="#ffffff">1533331×</text>
</g>
<!-- 3&#45;&gt;4 -->
<g id="edge3" class="edge">
<title>3&#45;&gt;4</title>
<path fill="none" stroke="#0ab026" stroke-width="1.83" d="M361,-643.93C361,-633.78 361,-621.92 361,-611.15"/>
<polygon fill="#0ab026" stroke="#0ab026" stroke-width="1.83" points="363.38,-611.05 361,-604.25 358.62,-611.05 363.38,-611.05"/>
<text text-anchor="middle" x="382.5" y="-627" font-family="Arial" font-size="10.00" fill="#0ab026">45.74%</text>
<text text-anchor="middle" x="382.5" y="-616" font-family="Arial" font-size="10.00" fill="#0ab026">1533330×</text>
</g>
<!-- 7 -->
<g id="node5" class="node">
<title>7</title>
<polygon fill="#0b9c76" stroke="#0b9c76" points="495,-604 421,-604 421,-552 495,-552 495,-604"/>
<text text-anchor="middle" x="458" y="-592" font-family="Arial" font-size="10.00" fill="#ffffff">core_list_find</text>
<text text-anchor="middle" x="458" y="-581" font-family="Arial" font-size="10.00" fill="#ffffff">31.61%</text>
<text text-anchor="middle" x="458" y="-570" font-family="Arial" font-size="10.00" fill="#ffffff">(31.61%)</text>
<text text-anchor="middle" x="458" y="-559" font-family="Arial" font-size="10.00" fill="#ffffff">105288660×</text>
</g>
<!-- 3&#45;&gt;7 -->
<g id="edge4" class="edge">
<title>3&#45;&gt;7</title>
<path fill="none" stroke="#0b9c76" stroke-width="1.26" d="M395.42,-643.99C399.06,-641.05 402.66,-638.02 406,-635 415.05,-626.82 424.31,-617.29 432.46,-608.44"/>
<polygon fill="#0b9c76" stroke="#0b9c76" stroke-width="1.26" points="434.04,-609.62 436.36,-604.16 431.14,-606.97 434.04,-609.62"/>
<text text-anchor="middle" x="454" y="-627" font-family="Arial" font-size="10.00" fill="#0b9c76">31.61%</text>
<text text-anchor="middle" x="454" y="-616" font-family="Arial" font-size="10.00" fill="#0b9c76">105288660×</text>
</g>
<!-- 11 -->
<g id="node6" class="node">
<title>11</title>
<polygon fill="#0c5987" stroke="#0c5987" points="595.5,-604 504.5,-604 504.5,-552 595.5,-552 595.5,-604"/>
<text text-anchor="middle" x="550" y="-592" font-family="Arial" font-size="10.00" fill="#ffffff">core_list_reverse</text>
<text text-anchor="middle" x="550" y="-581" font-family="Arial" font-size="10.00" fill="#ffffff">15.64%</text>
<text text-anchor="middle" x="550" y="-570" font-family="Arial" font-size="10.00" fill="#ffffff">(15.64%)</text>
<text text-anchor="middle" x="550" y="-559" font-family="Arial" font-size="10.00" fill="#ffffff">104266440×</text>
</g>
<!-- 3&#45;&gt;11 -->
<g id="edge5" class="edge">
<title>3&#45;&gt;11</title>
<path fill="none" stroke="#0c5987" stroke-width="0.63" d="M403.6,-661.76C427.83,-656.53 458.19,-648.04 483,-635 496.98,-627.65 510.68,-617 522.01,-606.96"/>
<polygon fill="#0c5987" stroke="#0c5987" stroke-width="0.63" points="523.11,-607.87 525.15,-604.15 521.23,-605.78 523.11,-607.87"/>
<text text-anchor="middle" x="541" y="-627" font-family="Arial" font-size="10.00" fill="#0c5987">15.64%</text>
<text text-anchor="middle" x="541" y="-616" font-family="Arial" font-size="10.00" fill="#0c5987">104266440×</text>
</g>
<!-- 15 -->
<g id="node7" class="node">
<title>15</title>
<polygon fill="#0d317d" stroke="#0d317d" points="201,-52 131,-52 131,0 201,0 201,-52"/>
<text text-anchor="middle" x="166" y="-40" font-family="Arial" font-size="10.00" fill="#ffffff">crcu8</text>
<text text-anchor="middle" x="166" y="-29" font-family="Arial" font-size="10.00" fill="#ffffff">8.10%</text>
<text text-anchor="middle" x="166" y="-18" font-family="Arial" font-size="10.00" fill="#ffffff">(8.10%)</text>
<text text-anchor="middle" x="166" y="-7" font-family="Arial" font-size="10.00" fill="#ffffff">298488248×</text>
</g>
<!-- 3&#45;&gt;15 -->
<g id="edge6" class="edge">
<title>3&#45;&gt;15</title>
<path fill="none" stroke="#0d1375" stroke-width="0.5" d="M318.17,-667.31C222.55,-662.38 0,-643.91 0,-579 0,-579 0,-579 0,-117 0,-59.37 78.27,-38.45 127.32,-31"/>
<polygon fill="#0d1375" stroke="#0d1375" stroke-width="0.5" points="127.51,-32.21 130.8,-30.48 127.15,-29.78 127.51,-32.21"/>
<text text-anchor="middle" x="24.5" y="-351" font-family="Arial" font-size="10.00" fill="#0d1375">1.58%</text>
<text text-anchor="middle" x="24.5" y="-340" font-family="Arial" font-size="10.00" fill="#0d1375">58266540×</text>
</g>
<!-- 16 -->
<g id="node8" class="node">
<title>16</title>
<polygon fill="#0d2279" stroke="#0d2279" points="306,-144 236,-144 236,-92 306,-92 306,-144"/>
<text text-anchor="middle" x="271" y="-132" font-family="Arial" font-size="10.00" fill="#ffffff">crcu16</text>
<text text-anchor="middle" x="271" y="-121" font-family="Arial" font-size="10.00" fill="#ffffff">4.95%</text>
<text text-anchor="middle" x="271" y="-110" font-family="Arial" font-size="10.00" fill="#ffffff">(0.90%)</text>
<text text-anchor="middle" x="271" y="-99" font-family="Arial" font-size="10.00" fill="#ffffff">149244124×</text>
</g>
<!-- 3&#45;&gt;16 -->
<g id="edge7" class="edge">
<title>3&#45;&gt;16</title>
<path fill="none" stroke="#0d1575" stroke-width="0.5" d="M329.64,-643.64C313.02,-627.22 296,-604.25 296,-579 296,-579 296,-579 296,-209 296,-187.87 289.52,-164.93 283.16,-147.5"/>
<polygon fill="#0d1575" stroke="#0d1575" stroke-width="0.5" points="284.26,-146.94 281.89,-144.09 281.96,-147.8 284.26,-146.94"/>
<text text-anchor="middle" x="320.5" y="-397" font-family="Arial" font-size="10.00" fill="#0d1575">1.93%</text>
<text text-anchor="middle" x="320.5" y="-386" font-family="Arial" font-size="10.00" fill="#0d1575">58266540×</text>
</g>
<!-- 5 -->
<g id="node9" class="node">
<title>5</title>
<polygon fill="#0aad31" stroke="#0aad31" points="420.5,-512 343.5,-512 343.5,-460 420.5,-460 420.5,-512"/>
<text text-anchor="middle" x="382" y="-500" font-family="Arial" font-size="10.00" fill="#ffffff">cmp_complex</text>
<text text-anchor="middle" x="382" y="-489" font-family="Arial" font-size="10.00" fill="#ffffff">44.06%</text>
<text text-anchor="middle" x="382" y="-478" font-family="Arial" font-size="10.00" fill="#ffffff">(0.56%)</text>
<text text-anchor="middle" x="382" y="-467" font-family="Arial" font-size="10.00" fill="#ffffff">56763450×</text>
</g>
<!-- 4&#45;&gt;5 -->
<g id="edge8" class="edge">
<title>4&#45;&gt;5</title>
<path fill="none" stroke="#0aad31" stroke-width="1.76" d="M366.85,-551.93C369.24,-541.68 372.04,-529.7 374.57,-518.84"/>
<polygon fill="#0aad31" stroke="#0aad31" stroke-width="1.76" points="376.86,-519.2 376.11,-512.25 372.36,-518.15 376.86,-519.2"/>
<text text-anchor="middle" x="398.5" y="-535" font-family="Arial" font-size="10.00" fill="#0aad31">44.06%</text>
<text text-anchor="middle" x="398.5" y="-524" font-family="Arial" font-size="10.00" fill="#0aad31">56763450×</text>
</g>
<!-- 16&#45;&gt;15 -->
<g id="edge26" class="edge">
<title>16&#45;&gt;15</title>
<path fill="none" stroke="#0d1e78" stroke-width="0.5" d="M241.75,-91.93C228.21,-80.32 212.09,-66.5 198.2,-54.6"/>
<polygon fill="#0d1e78" stroke="#0d1e78" stroke-width="0.5" points="198.91,-53.6 195.46,-52.25 197.32,-55.46 198.91,-53.6"/>
<text text-anchor="middle" x="258" y="-75" font-family="Arial" font-size="10.00" fill="#0d1e78">4.05%</text>
<text text-anchor="middle" x="258" y="-64" font-family="Arial" font-size="10.00" fill="#0d1e78">149244124×</text>
</g>
<!-- 6 -->
<g id="node10" class="node">
<title>6</title>
<polygon fill="#0aad35" stroke="#0aad35" points="424,-420 354,-420 354,-368 424,-368 424,-420"/>
<text text-anchor="middle" x="389" y="-408" font-family="Arial" font-size="10.00" fill="#ffffff">calc_func</text>
<text text-anchor="middle" x="389" y="-397" font-family="Arial" font-size="10.00" fill="#ffffff">43.49%</text>
<text text-anchor="middle" x="389" y="-386" font-family="Arial" font-size="10.00" fill="#ffffff">(0.45%)</text>
<text text-anchor="middle" x="389" y="-375" font-family="Arial" font-size="10.00" fill="#ffffff">113526900×</text>
</g>
<!-- 5&#45;&gt;6 -->
<g id="edge9" class="edge">
<title>5&#45;&gt;6</title>
<path fill="none" stroke="#0aad35" stroke-width="1.74" d="M383.95,-459.93C384.75,-449.68 385.68,-437.7 386.52,-426.84"/>
<polygon fill="#0aad35" stroke="#0aad35" stroke-width="1.74" points="388.83,-427.01 387.04,-420.25 384.22,-426.65 388.83,-427.01"/>
<text text-anchor="middle" x="414" y="-443" font-family="Arial" font-size="10.00" fill="#0aad35">43.49%</text>
<text text-anchor="middle" x="414" y="-432" font-family="Arial" font-size="10.00" fill="#0aad35">113526900×</text>
</g>
<!-- 6&#45;&gt;15 -->
<g id="edge12" class="edge">
<title>6&#45;&gt;15</title>
<path fill="none" stroke="#0d0f73" stroke-width="0.5" d="M393.18,-367.86C399.51,-322.67 407.71,-225.67 376,-153 353.25,-100.86 335.86,-90.15 287,-61 261.73,-45.92 229.5,-37.29 204.66,-32.51"/>
<polygon fill="#0d0f73" stroke="#0d0f73" stroke-width="0.5" points="204.72,-31.27 201.05,-31.83 204.26,-33.68 204.72,-31.27"/>
<text text-anchor="middle" x="421.5" y="-213" font-family="Arial" font-size="10.00" fill="#0d0f73">0.44%</text>
<text text-anchor="middle" x="421.5" y="-202" font-family="Arial" font-size="10.00" fill="#0d0f73">16355520×</text>
</g>
<!-- 6&#45;&gt;16 -->
<g id="edge13" class="edge">
<title>6&#45;&gt;16</title>
<path fill="none" stroke="#0d0f73" stroke-width="0.5" d="M374.88,-367.64C361.47,-342.68 341.56,-303.16 329,-267 311.95,-217.91 327.44,-198.86 303,-153 301.95,-151.03 300.75,-149.09 299.46,-147.19"/>
<polygon fill="#0d0f73" stroke="#0d0f73" stroke-width="0.5" points="300.38,-146.38 297.34,-144.26 298.39,-147.81 300.38,-146.38"/>
<text text-anchor="middle" x="353.5" y="-259" font-family="Arial" font-size="10.00" fill="#0d0f73">0.54%</text>
<text text-anchor="middle" x="353.5" y="-248" font-family="Arial" font-size="10.00" fill="#0d0f73">16355520×</text>
</g>
<!-- 8 -->
<g id="node11" class="node">
<title>8</title>
<polygon fill="#0c9492" stroke="#0c9492" points="549.5,-328 450.5,-328 450.5,-276 549.5,-276 549.5,-328"/>
<text text-anchor="middle" x="500" y="-316" font-family="Arial" font-size="10.00" fill="#ffffff">core_bench_matrix</text>
<text text-anchor="middle" x="500" y="-305" font-family="Arial" font-size="10.00" fill="#ffffff">25.39%</text>
<text text-anchor="middle" x="500" y="-294" font-family="Arial" font-size="10.00" fill="#ffffff">(0.00%)</text>
<text text-anchor="middle" x="500" y="-283" font-family="Arial" font-size="10.00" fill="#ffffff">2044440×</text>
</g>
<!-- 6&#45;&gt;8 -->
<g id="edge10" class="edge">
<title>6&#45;&gt;8</title>
<path fill="none" stroke="#0c9492" stroke-width="1.02" d="M419.92,-367.93C433.87,-356.61 450.43,-343.19 464.85,-331.5"/>
<polygon fill="#0c9492" stroke="#0c9492" stroke-width="1.02" points="466.08,-332.76 468.86,-328.25 463.88,-330.04 466.08,-332.76"/>
<text text-anchor="middle" x="479.5" y="-351" font-family="Arial" font-size="10.00" fill="#0c9492">25.39%</text>
<text text-anchor="middle" x="479.5" y="-340" font-family="Arial" font-size="10.00" fill="#0c9492">2044440×</text>
</g>
<!-- 10 -->
<g id="node12" class="node">
<title>10</title>
<polygon fill="#0c5f88" stroke="#0c5f88" points="208,-328 114,-328 114,-276 208,-276 208,-328"/>
<text text-anchor="middle" x="161" y="-316" font-family="Arial" font-size="10.00" fill="#ffffff">core_bench_state</text>
<text text-anchor="middle" x="161" y="-305" font-family="Arial" font-size="10.00" fill="#ffffff">16.66%</text>
<text text-anchor="middle" x="161" y="-294" font-family="Arial" font-size="10.00" fill="#ffffff">(1.57%)</text>
<text text-anchor="middle" x="161" y="-283" font-family="Arial" font-size="10.00" fill="#ffffff">2044440×</text>
</g>
<!-- 6&#45;&gt;10 -->
<g id="edge11" class="edge">
<title>6&#45;&gt;10</title>
<path fill="none" stroke="#0c5f88" stroke-width="0.67" d="M353.76,-370.63C351.52,-369.64 349.25,-368.75 347,-368 312.23,-356.36 300.01,-369.89 265,-359 243.34,-352.26 220.98,-340.89 202.57,-330.15"/>
<polygon fill="#0c5f88" stroke="#0c5f88" stroke-width="0.67" points="203.2,-328.85 198.94,-328.01 201.74,-331.33 203.2,-328.85"/>
<text text-anchor="middle" x="286.5" y="-351" font-family="Arial" font-size="10.00" fill="#0c5f88">16.66%</text>
<text text-anchor="middle" x="286.5" y="-340" font-family="Arial" font-size="10.00" fill="#0c5f88">2044440×</text>
</g>
<!-- 9 -->
<g id="node13" class="node">
<title>9</title>
<polygon fill="#0c9492" stroke="#0c9492" points="662.5,-236 597.5,-236 597.5,-184 662.5,-184 662.5,-236"/>
<text text-anchor="middle" x="630" y="-224" font-family="Arial" font-size="10.00" fill="#ffffff">matrix_test</text>
<text text-anchor="middle" x="630" y="-213" font-family="Arial" font-size="10.00" fill="#ffffff">25.39%</text>
<text text-anchor="middle" x="630" y="-202" font-family="Arial" font-size="10.00" fill="#ffffff">(0.11%)</text>
<text text-anchor="middle" x="630" y="-191" font-family="Arial" font-size="10.00" fill="#ffffff">2044440×</text>
</g>
<!-- 8&#45;&gt;9 -->
<g id="edge14" class="edge">
<title>8&#45;&gt;9</title>
<path fill="none" stroke="#0c9492" stroke-width="1.02" d="M536.21,-275.93C553.8,-263.75 574.92,-249.13 592.66,-236.85"/>
<polygon fill="#0c9492" stroke="#0c9492" stroke-width="1.02" points="593.98,-238.07 597.09,-233.78 591.99,-235.19 593.98,-238.07"/>
<text text-anchor="middle" x="601.5" y="-259" font-family="Arial" font-size="10.00" fill="#0c9492">25.39%</text>
<text text-anchor="middle" x="601.5" y="-248" font-family="Arial" font-size="10.00" fill="#0c9492">2044440×</text>
</g>
<!-- 10&#45;&gt;15 -->
<g id="edge23" class="edge">
<title>10&#45;&gt;15</title>
<path fill="none" stroke="#0d1074" stroke-width="0.5" d="M113.75,-291.3C83.72,-282.4 47.2,-265.89 29,-236 16.98,-216.26 27.15,-207.04 29,-184 30.11,-170.09 27.5,-165.35 34,-153 56.08,-111.03 97.46,-75.07 128.03,-52.43"/>
<polygon fill="#0d1074" stroke="#0d1074" stroke-width="0.5" points="128.86,-53.35 130.95,-50.29 127.4,-51.37 128.86,-53.35"/>
<text text-anchor="middle" x="58.5" y="-167" font-family="Arial" font-size="10.00" fill="#0d1074">0.89%</text>
<text text-anchor="middle" x="58.5" y="-156" font-family="Arial" font-size="10.00" fill="#0d1074">32711040×</text>
</g>
<!-- 10&#45;&gt;16 -->
<g id="edge24" class="edge">
<title>10&#45;&gt;16</title>
<path fill="none" stroke="#0d1174" stroke-width="0.5" d="M208.25,-276.29C211.49,-273.45 214.46,-270.36 217,-267 240.1,-236.47 226.6,-219.86 240,-184 244.56,-171.79 250.55,-158.75 256.04,-147.58"/>
<polygon fill="#0d1174" stroke="#0d1174" stroke-width="0.5" points="257.27,-147.86 257.73,-144.18 255.08,-146.77 257.27,-147.86"/>
<text text-anchor="middle" x="264.5" y="-213" font-family="Arial" font-size="10.00" fill="#0d1174">1.08%</text>
<text text-anchor="middle" x="264.5" y="-202" font-family="Arial" font-size="10.00" fill="#0d1174">32711040×</text>
</g>
<!-- 12 -->
<g id="node19" class="node">
<title>12</title>
<polygon fill="#0d3e81" stroke="#0d3e81" points="214.5,-236 107.5,-236 107.5,-184 214.5,-184 214.5,-236"/>
<text text-anchor="middle" x="161" y="-224" font-family="Arial" font-size="10.00" fill="#ffffff">core_state_transition</text>
<text text-anchor="middle" x="161" y="-213" font-family="Arial" font-size="10.00" fill="#ffffff">10.69%</text>
<text text-anchor="middle" x="161" y="-202" font-family="Arial" font-size="10.00" fill="#ffffff">(10.69%)</text>
<text text-anchor="middle" x="161" y="-191" font-family="Arial" font-size="10.00" fill="#ffffff">523376640×</text>
</g>
<!-- 10&#45;&gt;12 -->
<g id="edge22" class="edge">
<title>10&#45;&gt;12</title>
<path fill="none" stroke="#0d3e81" stroke-width="0.5" d="M161,-275.93C161,-264.71 161,-251.42 161,-239.8"/>
<polygon fill="#0d3e81" stroke="#0d3e81" stroke-width="0.5" points="162.23,-239.75 161,-236.25 159.78,-239.75 162.23,-239.75"/>
<text text-anchor="middle" x="188" y="-259" font-family="Arial" font-size="10.00" fill="#0d3e81">10.69%</text>
<text text-anchor="middle" x="188" y="-248" font-family="Arial" font-size="10.00" fill="#0d3e81">523376640×</text>
</g>
<!-- 18 -->
<g id="node20" class="node">
<title>18</title>
<polygon fill="#0d1776" stroke="#0d1776" points="98.5,-236 33.5,-236 33.5,-184 98.5,-184 98.5,-236"/>
<text text-anchor="middle" x="66" y="-224" font-family="Arial" font-size="10.00" fill="#ffffff">crcu32</text>
<text text-anchor="middle" x="66" y="-213" font-family="Arial" font-size="10.00" fill="#ffffff">2.42%</text>
<text text-anchor="middle" x="66" y="-202" font-family="Arial" font-size="10.00" fill="#ffffff">(0.45%)</text>
<text text-anchor="middle" x="66" y="-191" font-family="Arial" font-size="10.00" fill="#ffffff">32711040×</text>
</g>
<!-- 10&#45;&gt;18 -->
<g id="edge25" class="edge">
<title>10&#45;&gt;18</title>
<path fill="none" stroke="#0d1776" stroke-width="0.5" d="M120.55,-275.81C116.86,-272.99 113.28,-270.03 110,-267 101.03,-258.71 92.44,-248.48 85.26,-239.04"/>
<polygon fill="#0d1776" stroke="#0d1776" stroke-width="0.5" points="86.16,-238.2 83.08,-236.14 84.2,-239.67 86.16,-238.2"/>
<text text-anchor="middle" x="134.5" y="-259" font-family="Arial" font-size="10.00" fill="#0d1776">2.42%</text>
<text text-anchor="middle" x="134.5" y="-248" font-family="Arial" font-size="10.00" fill="#0d1776">32711040×</text>
</g>
<!-- 9&#45;&gt;15 -->
<g id="edge17" class="edge">
<title>9&#45;&gt;15</title>
<path fill="none" stroke="#0d0e73" stroke-width="0.5" d="M597.13,-208.96C548.89,-207.05 459.2,-196.16 409,-144 382.61,-116.58 416.16,-86.59 388,-61 361.81,-37.2 261.15,-30.06 204.79,-27.92"/>
<polygon fill="#0d0e73" stroke="#0d0e73" stroke-width="0.5" points="204.69,-26.69 201.15,-27.78 204.6,-29.14 204.69,-26.69"/>
<text text-anchor="middle" x="430.5" y="-121" font-family="Arial" font-size="10.00" fill="#0d0e73">0.22%</text>
<text text-anchor="middle" x="430.5" y="-110" font-family="Arial" font-size="10.00" fill="#0d0e73">8177760×</text>
</g>
<!-- 9&#45;&gt;16 -->
<g id="edge18" class="edge">
<title>9&#45;&gt;16</title>
<path fill="none" stroke="#0d0e73" stroke-width="0.5" d="M597.41,-204.61C558.89,-199.46 492.82,-190.78 436,-184 399.59,-179.66 388.42,-187.62 354,-175 348.87,-173.12 328.76,-159.58 309.62,-146.28"/>
<polygon fill="#0d0e73" stroke="#0d0e73" stroke-width="0.5" points="309.88,-144.98 306.31,-143.98 308.48,-146.99 309.88,-144.98"/>
<text text-anchor="middle" x="375.5" y="-167" font-family="Arial" font-size="10.00" fill="#0d0e73">0.27%</text>
<text text-anchor="middle" x="375.5" y="-156" font-family="Arial" font-size="10.00" fill="#0d0e73">8177760×</text>
</g>
<!-- 13 -->
<g id="node14" class="node">
<title>13</title>
<polygon fill="#0d3a7f" stroke="#0d3a7f" points="599.5,-144 456.5,-144 456.5,-92 599.5,-92 599.5,-144"/>
<text text-anchor="middle" x="528" y="-132" font-family="Arial" font-size="10.00" fill="#ffffff">matrix_mul_matrix_bitextract</text>
<text text-anchor="middle" x="528" y="-121" font-family="Arial" font-size="10.00" fill="#ffffff">9.79%</text>
<text text-anchor="middle" x="528" y="-110" font-family="Arial" font-size="10.00" fill="#ffffff">(9.79%)</text>
<text text-anchor="middle" x="528" y="-99" font-family="Arial" font-size="10.00" fill="#ffffff">2044440×</text>
</g>
<!-- 9&#45;&gt;13 -->
<g id="edge15" class="edge">
<title>9&#45;&gt;13</title>
<path fill="none" stroke="#0d3a7f" stroke-width="0.5" d="M601.59,-183.93C588.43,-172.32 572.77,-158.5 559.28,-146.6"/>
<polygon fill="#0d3a7f" stroke="#0d3a7f" stroke-width="0.5" points="560.05,-145.64 556.61,-144.25 558.43,-147.48 560.05,-145.64"/>
<text text-anchor="middle" x="612.5" y="-167" font-family="Arial" font-size="10.00" fill="#0d3a7f">9.79%</text>
<text text-anchor="middle" x="612.5" y="-156" font-family="Arial" font-size="10.00" fill="#0d3a7f">2044440×</text>
</g>
<!-- 14 -->
<g id="node15" class="node">
<title>14</title>
<polygon fill="#0d367e" stroke="#0d367e" points="705.5,-144 608.5,-144 608.5,-92 705.5,-92 705.5,-144"/>
<text text-anchor="middle" x="657" y="-132" font-family="Arial" font-size="10.00" fill="#ffffff">matrix_mul_matrix</text>
<text text-anchor="middle" x="657" y="-121" font-family="Arial" font-size="10.00" fill="#ffffff">9.00%</text>
<text text-anchor="middle" x="657" y="-110" font-family="Arial" font-size="10.00" fill="#ffffff">(9.00%)</text>
<text text-anchor="middle" x="657" y="-99" font-family="Arial" font-size="10.00" fill="#ffffff">2044440×</text>
</g>
<!-- 9&#45;&gt;14 -->
<g id="edge16" class="edge">
<title>9&#45;&gt;14</title>
<path fill="none" stroke="#0d367e" stroke-width="0.5" d="M637.52,-183.93C640.89,-172.71 644.87,-159.42 648.36,-147.8"/>
<polygon fill="#0d367e" stroke="#0d367e" stroke-width="0.5" points="649.59,-147.95 649.43,-144.25 647.25,-147.25 649.59,-147.95"/>
<text text-anchor="middle" x="667.5" y="-167" font-family="Arial" font-size="10.00" fill="#0d367e">9.00%</text>
<text text-anchor="middle" x="667.5" y="-156" font-family="Arial" font-size="10.00" fill="#0d367e">2044440×</text>
</g>
<!-- 17 -->
<g id="node16" class="node">
<title>17</title>
<polygon fill="#0d1f78" stroke="#0d1f78" points="783,-144 715,-144 715,-92 783,-92 783,-144"/>
<text text-anchor="middle" x="749" y="-132" font-family="Arial" font-size="10.00" fill="#ffffff">matrix_sum</text>
<text text-anchor="middle" x="749" y="-121" font-family="Arial" font-size="10.00" fill="#ffffff">4.27%</text>
<text text-anchor="middle" x="749" y="-110" font-family="Arial" font-size="10.00" fill="#ffffff">(4.27%)</text>
<text text-anchor="middle" x="749" y="-99" font-family="Arial" font-size="10.00" fill="#ffffff">8177760×</text>
</g>
<!-- 9&#45;&gt;17 -->
<g id="edge19" class="edge">
<title>9&#45;&gt;17</title>
<path fill="none" stroke="#0d1f78" stroke-width="0.5" d="M662.63,-192.85C672.09,-187.63 682.24,-181.5 691,-175 702.11,-166.76 713.28,-156.55 722.81,-147.1"/>
<polygon fill="#0d1f78" stroke="#0d1f78" stroke-width="0.5" points="724.1,-147.54 725.71,-144.2 722.37,-145.81 724.1,-147.54"/>
<text text-anchor="middle" x="737.5" y="-167" font-family="Arial" font-size="10.00" fill="#0d1f78">4.27%</text>
<text text-anchor="middle" x="737.5" y="-156" font-family="Arial" font-size="10.00" fill="#0d1f78">8177760×</text>
</g>
<!-- 19 -->
<g id="node17" class="node">
<title>19</title>
<polygon fill="#0d1074" stroke="#0d1074" points="886,-144 792,-144 792,-92 886,-92 886,-144"/>
<text text-anchor="middle" x="839" y="-132" font-family="Arial" font-size="10.00" fill="#ffffff">matrix_add_const</text>
<text text-anchor="middle" x="839" y="-121" font-family="Arial" font-size="10.00" fill="#ffffff">0.79%</text>
<text text-anchor="middle" x="839" y="-110" font-family="Arial" font-size="10.00" fill="#ffffff">(0.79%)</text>
<text text-anchor="middle" x="839" y="-99" font-family="Arial" font-size="10.00" fill="#ffffff">4088880×</text>
</g>
<!-- 9&#45;&gt;19 -->
<g id="edge20" class="edge">
<title>9&#45;&gt;19</title>
<path fill="none" stroke="#0d1074" stroke-width="0.5" d="M662.64,-203.98C689.86,-199 729.19,-189.91 761,-175 777,-167.5 793.12,-156.61 806.52,-146.43"/>
<polygon fill="#0d1074" stroke="#0d1074" stroke-width="0.5" points="807.48,-147.23 809.51,-144.13 805.99,-145.29 807.48,-147.23"/>
<text text-anchor="middle" x="818.5" y="-167" font-family="Arial" font-size="10.00" fill="#0d1074">0.79%</text>
<text text-anchor="middle" x="818.5" y="-156" font-family="Arial" font-size="10.00" fill="#0d1074">4088880×</text>
</g>
<!-- 20 -->
<g id="node18" class="node">
<title>20</title>
<polygon fill="#0d1074" stroke="#0d1074" points="989,-144 895,-144 895,-92 989,-92 989,-144"/>
<text text-anchor="middle" x="942" y="-132" font-family="Arial" font-size="10.00" fill="#ffffff">matrix_mul_const</text>
<text text-anchor="middle" x="942" y="-121" font-family="Arial" font-size="10.00" fill="#ffffff">0.67%</text>
<text text-anchor="middle" x="942" y="-110" font-family="Arial" font-size="10.00" fill="#ffffff">(0.67%)</text>
<text text-anchor="middle" x="942" y="-99" font-family="Arial" font-size="10.00" fill="#ffffff">2044440×</text>
</g>
<!-- 9&#45;&gt;20 -->
<g id="edge21" class="edge">
<title>9&#45;&gt;20</title>
<path fill="none" stroke="#0d1074" stroke-width="0.5" d="M662.83,-207.3C705.25,-204.31 780.92,-196.25 842,-175 862.61,-167.83 883.91,-156.53 901.53,-145.95"/>
<polygon fill="#0d1074" stroke="#0d1074" stroke-width="0.5" points="902.19,-146.98 904.55,-144.12 900.92,-144.89 902.19,-146.98"/>
<text text-anchor="middle" x="908.5" y="-167" font-family="Arial" font-size="10.00" fill="#0d1074">0.67%</text>
<text text-anchor="middle" x="908.5" y="-156" font-family="Arial" font-size="10.00" fill="#0d1074">2044440×</text>
</g>
<!-- 18&#45;&gt;15 -->
<g id="edge27" class="edge">
<title>18&#45;&gt;15</title>
<path fill="none" stroke="#0d1074" stroke-width="0.5" d="M79.9,-183.69C98.41,-150.01 131.05,-90.61 150.38,-55.42"/>
<polygon fill="#0d1074" stroke="#0d1074" stroke-width="0.5" points="151.6,-55.75 152.21,-52.09 149.45,-54.57 151.6,-55.75"/>
<text text-anchor="middle" x="154.5" y="-121" font-family="Arial" font-size="10.00" fill="#0d1074">0.89%</text>
<text text-anchor="middle" x="154.5" y="-110" font-family="Arial" font-size="10.00" fill="#0d1074">32711040×</text>
</g>
<!-- 18&#45;&gt;16 -->
<g id="edge28" class="edge">
<title>18&#45;&gt;16</title>
<path fill="none" stroke="#0d1174" stroke-width="0.5" d="M98.88,-186.31C100.26,-185.51 101.64,-184.74 103,-184 110.84,-179.76 168.69,-156.24 177,-153 195.04,-145.96 215.21,-138.6 232.22,-132.54"/>
<polygon fill="#0d1174" stroke="#0d1174" stroke-width="0.5" points="232.69,-133.67 235.58,-131.34 231.87,-131.36 232.69,-133.67"/>
<text text-anchor="middle" x="201.5" y="-167" font-family="Arial" font-size="10.00" fill="#0d1174">1.08%</text>
<text text-anchor="middle" x="201.5" y="-156" font-family="Arial" font-size="10.00" fill="#0d1174">32711040×</text>
</g>
</g>
</svg>
