<?xml version="1.0" encoding="UTF-8" standalone="no"?>
<!DOCTYPE svg PUBLIC "-//W3C//DTD SVG 1.1//EN"
 "http://www.w3.org/Graphics/SVG/1.1/DTD/svg11.dtd">
<!-- Generated by graphviz version 2.43.0 (0)
 -->
<!-- Title: %3 Pages: 1 -->
<svg width="993pt" height="877pt"
 viewBox="0.00 0.00 993.00 877.00" xmlns="http://www.w3.org/2000/svg" xmlns:xlink="http://www.w3.org/1999/xlink">
<g id="graph0" class="graph" transform="scale(1 1) rotate(0) translate(4 873)">
<title>%3</title>
<polygon fill="white" stroke="transparent" points="-4,4 -4,-873 989,-873 989,4 -4,4"/>
<!-- 1 -->
<g id="node1" class="node">
<title>1</title>
<polygon fill="#ff0000" stroke="#ff0000" points="388.5,-869 333.5,-869 333.5,-828 388.5,-828 388.5,-869"/>
<text text-anchor="middle" x="361" y="-857" font-family="Arial" font-size="10.00" fill="#ffffff">main</text>
<text text-anchor="middle" x="361" y="-846" font-family="Arial" font-size="10.00" fill="#ffffff">100.00%</text>
<text text-anchor="middle" x="361" y="-835" font-family="Arial" font-size="10.00" fill="#ffffff">(0.00%)</text>
</g>
<!-- 2 -->
<g id="node2" class="node">
<title>2</title>
<polygon fill="#ff0000" stroke="#ff0000" points="388.5,-788 333.5,-788 333.5,-736 388.5,-736 388.5,-788"/>
<text text-anchor="middle" x="361" y="-776" font-family="Arial" font-size="10.00" fill="#ffffff">iterate</text>
<text text-anchor="middle" x="361" y="-765" font-family="Arial" font-size="10.00" fill="#ffffff">100.00%</text>
<text text-anchor="middle" x="361" y="-754" font-family="Arial" font-size="10.00" fill="#ffffff">(0.00%)</text>
<text text-anchor="middle" x="361" y="-743" font-family="Arial" font-size="10.00" fill="#ffffff">6×</text>
</g>
<!-- 1&#45;&gt;2 -->
<g id="edge1" class="edge">
<title>1&#45;&gt;2</title>
<path fill="none" stroke="#ff0000" stroke-width="4" d="M361,-827.9C361,-819.14 361,-808.55 361,-798.47"/>
<polygon fill="#ff0000" stroke="#ff0000" stroke-width="4" points="364.5,-798.27 361,-788.27 357.5,-798.27 364.5,-798.27"/>
<text text-anchor="middle" x="380.5" y="-811" font-family="Arial" font-size="10.00" fill="#ff0000">100.00%</text>
<text text-anchor="middle" x="380.5" y="-800" font-family="Arial" font-size="10.00" fill="#ff0000">6×</text>
</g>
<!-- 3 -->
<g id="node3" class="node">
<title>3</title>
<polygon fill="#ff0100" stroke="#ff0100" points="403.5,-696 318.5,-696 318.5,-644 403.5,-644 403.5,-696"/>
<text text-anchor="middle" x="361" y="-684" font-family="Arial" font-size="10.00" fill="#ffffff">core_bench_list</text>
<text text-anchor="middle" x="361" y="-673" font-family="Arial" font-size="10.00" fill="#ffffff">99.94%</text>
<text text-anchor="middle" x="361" y="-662" font-family="Arial" font-size="10.00" fill="#ffffff">(2.50%)</text>
<text text-anchor="middle" x="361" y="-651" font-family="Arial" font-size="10.00" fill="#ffffff">822220×</text>
</g>
<!-- 2&#45;&gt;3 -->
<g id="edge2" class="edge">
<title>2&#45;&gt;3</title>
<path fill="none" stroke="#ff0100" stroke-width="4" d="M361,-735.93C361,-726.74 361,-716.17 361,-706.25"/>
<polygon fill="#ff0100" stroke="#ff0100" stroke-width="4" points="364.5,-706.25 361,-696.25 357.5,-706.25 364.5,-706.25"/>
<text text-anchor="middle" x="380" y="-719" font-family="Arial" font-size="10.00" fill="#ff0100">99.94%</text>
<text text-anchor="middle" x="380" y="-708" font-family="Arial" font-size="10.00" fill="#ff0100">822220×</text>
</g>
<!-- 4 -->
<g id="node4" class="node">
<title>4</title>
<polygon fill="#0aaf2a" stroke="#0aaf2a" points="412,-604 310,-604 310,-552 412,-552 412,-604"/>
<text text-anchor="middle" x="361" y="-592" font-family="Arial" font-size="10.00" fill="#ffffff">core_list_mergesort</text>
<text text-anchor="middle" x="361" y="-581" font-family="Arial" font-size="10.00" fill="#ffffff">45.12%</text>
<text text-anchor="middle" x="361" y="-570" font-family="Arial" font-size="10.00" fill="#ffffff">(2.09%)</text>
<text text-anchor="middle" x="361" y="-559" font-family="Arial" font-size="10.00" fill="#ffffff">1233331×</text>
</g>
<!-- 3&#45;&gt;4 -->
<g id="edge3" class="edge">
<title>3&#45;&gt;4</title>
<path fill="none" stroke="#0aaf2a" stroke-width="1.8" d="M361,-643.93C361,-633.78 361,-621.92 361,-611.15"/>
<polygon fill="#0aaf2a" stroke="#0aaf2a" stroke-width="1.8" points="363.35,-610.95 361,-604.25 358.66,-610.95 363.35,-610.95"/>
<text text-anchor="middle" x="382.5" y="-627" font-family="Arial" font-size="10.00" fill="#0aaf2a">45.12%</text>
<text text-anchor="middle" x="382.5" y="-616" font-family="Arial" font-size="10.00" fill="#0aaf2a">1233330×</text>
</g>
<!-- 7 -->
<g id="node5" class="node">
<title>7</title>
<polygon fill="#0b9d74" stroke="#0b9d74" points="495,-604 421,-604 421,-552 495,-552 495,-604"/>
<text text-anchor="middle" x="458" y="-592" font-family="Arial" font-size="10.00" fill="#ffffff">core_list_find</text>
<text text-anchor="middle" x="458" y="-581" font-family="Arial" font-size="10.00" fill="#ffffff">31.99%</text>
<text text-anchor="middle" x="458" y="-570" font-family="Arial" font-size="10.00" fill="#ffffff">(31.99%)</text>
<text text-anchor="middle" x="458" y="-559" font-family="Arial" font-size="10.00" fill="#ffffff">84688660×</text>
</g>
<!-- 3&#45;&gt;7 -->
<g id="edge4" class="edge">
<title>3&#45;&gt;7</title>
<path fill="none" stroke="#0b9d74" stroke-width="1.28" d="M395.42,-643.99C399.06,-641.05 402.66,-638.02 406,-635 415.05,-626.82 424.31,-617.29 432.46,-608.44"/>
<polygon fill="#0b9d74" stroke="#0b9d74" stroke-width="1.28" points="434,-609.71 436.36,-604.16 431.05,-607.02 434,-609.71"/>
<text text-anchor="middle" x="451.5" y="-627" font-family="Arial" font-size="10.00" fill="#0b9d74">31.99%</text>
<text text-anchor="middle" x="451.5" y="-616" font-family="Arial" font-size="10.00" fill="#0b9d74">84688660×</text>
</g>
<!-- 11 -->
<g id="node6" class="node">
<title>11</title>
<polygon fill="#0c6089" stroke="#0c6089" points="595.5,-604 504.5,-604 504.5,-552 595.5,-552 595.5,-604"/>
<text text-anchor="middle" x="550" y="-592" font-family="Arial" font-size="10.00" fill="#ffffff">core_list_reverse</text>
<text text-anchor="middle" x="550" y="-581" font-family="Arial" font-size="10.00" fill="#ffffff">16.83%</text>
<text text-anchor="middle" x="550" y="-570" font-family="Arial" font-size="10.00" fill="#ffffff">(16.83%)</text>
<text text-anchor="middle" x="550" y="-559" font-family="Arial" font-size="10.00" fill="#ffffff">83866440×</text>
</g>
<!-- 3&#45;&gt;11 -->
<g id="edge5" class="edge">
<title>3&#45;&gt;11</title>
<path fill="none" stroke="#0c6089" stroke-width="0.67" d="M403.61,-660.71C426.46,-655.27 454.64,-646.92 478,-635 492.7,-627.5 507.36,-616.83 519.58,-606.81"/>
<polygon fill="#0c6089" stroke="#0c6089" stroke-width="0.67" points="520.72,-607.72 522.96,-604 518.89,-605.51 520.72,-607.72"/>
<text text-anchor="middle" x="535.5" y="-627" font-family="Arial" font-size="10.00" fill="#0c6089">16.83%</text>
<text text-anchor="middle" x="535.5" y="-616" font-family="Arial" font-size="10.00" fill="#0c6089">83866440×</text>
</g>
<!-- 15 -->
<g id="node7" class="node">
<title>15</title>
<polygon fill="#0d2e7c" stroke="#0d2e7c" points="201,-52 131,-52 131,0 201,0 201,-52"/>
<text text-anchor="middle" x="166" y="-40" font-family="Arial" font-size="10.00" fill="#ffffff">crcu8</text>
<text text-anchor="middle" x="166" y="-29" font-family="Arial" font-size="10.00" fill="#ffffff">7.37%</text>
<text text-anchor="middle" x="166" y="-18" font-family="Arial" font-size="10.00" fill="#ffffff">(7.37%)</text>
<text text-anchor="middle" x="166" y="-7" font-family="Arial" font-size="10.00" fill="#ffffff">240088248×</text>
</g>
<!-- 3&#45;&gt;15 -->
<g id="edge6" class="edge">
<title>3&#45;&gt;15</title>
<path fill="none" stroke="#0d1375" stroke-width="0.5" d="M318.17,-667.31C222.55,-662.38 0,-643.91 0,-579 0,-579 0,-579 0,-117 0,-59.37 78.27,-38.45 127.32,-31"/>
<polygon fill="#0d1375" stroke="#0d1375" stroke-width="0.5" points="127.51,-32.21 130.8,-30.48 127.15,-29.78 127.51,-32.21"/>
<text text-anchor="middle" x="24.5" y="-351" font-family="Arial" font-size="10.00" fill="#0d1375">1.44%</text>
<text text-anchor="middle" x="24.5" y="-340" font-family="Arial" font-size="10.00" fill="#0d1375">46866540×</text>
</g>
<!-- 16 -->
<g id="node8" class="node">
<title>16</title>
<polygon fill="#0d2078" stroke="#0d2078" points="306,-144 236,-144 236,-92 306,-92 306,-144"/>
<text text-anchor="middle" x="271" y="-132" font-family="Arial" font-size="10.00" fill="#ffffff">crcu16</text>
<text text-anchor="middle" x="271" y="-121" font-family="Arial" font-size="10.00" fill="#ffffff">4.38%</text>
<text text-anchor="middle" x="271" y="-110" font-family="Arial" font-size="10.00" fill="#ffffff">(0.70%)</text>
<text text-anchor="middle" x="271" y="-99" font-family="Arial" font-size="10.00" fill="#ffffff">120044124×</text>
</g>
<!-- 3&#45;&gt;16 -->
<g id="edge7" class="edge">
<title>3&#45;&gt;16</title>
<path fill="none" stroke="#0d1475" stroke-width="0.5" d="M329.64,-643.64C313.02,-627.22 296,-604.25 296,-579 296,-579 296,-579 296,-209 296,-187.87 289.52,-164.93 283.16,-147.5"/>
<polygon fill="#0d1475" stroke="#0d1475" stroke-width="0.5" points="284.26,-146.94 281.89,-144.09 281.96,-147.8 284.26,-146.94"/>
<text text-anchor="middle" x="320.5" y="-397" font-family="Arial" font-size="10.00" fill="#0d1475">1.71%</text>
<text text-anchor="middle" x="320.5" y="-386" font-family="Arial" font-size="10.00" fill="#0d1475">46866540×</text>
</g>
<!-- 6 -->
<g id="node9" class="node">
<title>6</title>
<polygon fill="#0aac38" stroke="#0aac38" points="418.5,-512 341.5,-512 341.5,-460 418.5,-460 418.5,-512"/>
<text text-anchor="middle" x="380" y="-500" font-family="Arial" font-size="10.00" fill="#ffffff">cmp_complex</text>
<text text-anchor="middle" x="380" y="-489" font-family="Arial" font-size="10.00" fill="#ffffff">42.89%</text>
<text text-anchor="middle" x="380" y="-478" font-family="Arial" font-size="10.00" fill="#ffffff">(0.00%)</text>
<text text-anchor="middle" x="380" y="-467" font-family="Arial" font-size="10.00" fill="#ffffff">45657529×</text>
</g>
<!-- 4&#45;&gt;6 -->
<g id="edge8" class="edge">
<title>4&#45;&gt;6</title>
<path fill="none" stroke="#0aac38" stroke-width="1.72" d="M366.29,-551.93C368.46,-541.68 370.99,-529.7 373.28,-518.84"/>
<polygon fill="#0aac38" stroke="#0aac38" stroke-width="1.72" points="375.55,-519.08 374.67,-512.25 371.1,-518.14 375.55,-519.08"/>
<text text-anchor="middle" x="397.5" y="-535" font-family="Arial" font-size="10.00" fill="#0aac38">42.89%</text>
<text text-anchor="middle" x="397.5" y="-524" font-family="Arial" font-size="10.00" fill="#0aac38">45657529×</text>
</g>
<!-- 16&#45;&gt;15 -->
<g id="edge26" class="edge">
<title>16&#45;&gt;15</title>
<path fill="none" stroke="#0d1c77" stroke-width="0.5" d="M241.75,-91.93C228.21,-80.32 212.09,-66.5 198.2,-54.6"/>
<polygon fill="#0d1c77" stroke="#0d1c77" stroke-width="0.5" points="198.91,-53.6 195.46,-52.25 197.32,-55.46 198.91,-53.6"/>
<text text-anchor="middle" x="258" y="-75" font-family="Arial" font-size="10.00" fill="#0d1c77">3.69%</text>
<text text-anchor="middle" x="258" y="-64" font-family="Arial" font-size="10.00" fill="#0d1c77">120044124×</text>
</g>
<!-- 5 -->
<g id="node10" class="node">
<title>5</title>
<polygon fill="#0aac38" stroke="#0aac38" points="419.5,-420 354.5,-420 354.5,-368 419.5,-368 419.5,-420"/>
<text text-anchor="middle" x="387" y="-408" font-family="Arial" font-size="10.00" fill="#ffffff">calc_func</text>
<text text-anchor="middle" x="387" y="-397" font-family="Arial" font-size="10.00" fill="#ffffff">42.89%</text>
<text text-anchor="middle" x="387" y="-386" font-family="Arial" font-size="10.00" fill="#ffffff">(1.11%)</text>
<text text-anchor="middle" x="387" y="-375" font-family="Arial" font-size="10.00" fill="#ffffff">91315058×</text>
</g>
<!-- 6&#45;&gt;5 -->
<g id="edge13" class="edge">
<title>6&#45;&gt;5</title>
<path fill="none" stroke="#0aac38" stroke-width="1.72" d="M381.95,-459.93C382.75,-449.68 383.68,-437.7 384.52,-426.84"/>
<polygon fill="#0aac38" stroke="#0aac38" stroke-width="1.72" points="386.8,-426.9 385.04,-420.25 382.26,-426.55 386.8,-426.9"/>
<text text-anchor="middle" x="409.5" y="-443" font-family="Arial" font-size="10.00" fill="#0aac38">42.89%</text>
<text text-anchor="middle" x="409.5" y="-432" font-family="Arial" font-size="10.00" fill="#0aac38">91315058×</text>
</g>
<!-- 5&#45;&gt;15 -->
<g id="edge11" class="edge">
<title>5&#45;&gt;15</title>
<path fill="none" stroke="#0d0e73" stroke-width="0.5" d="M391.44,-367.88C398.25,-322.72 407.39,-225.77 376,-153 353.46,-100.76 335.86,-90.15 287,-61 261.73,-45.92 229.5,-37.29 204.66,-32.51"/>
<polygon fill="#0d0e73" stroke="#0d0e73" stroke-width="0.5" points="204.72,-31.27 201.05,-31.83 204.26,-33.68 204.72,-31.27"/>
<text text-anchor="middle" x="420.5" y="-213" font-family="Arial" font-size="10.00" fill="#0d0e73">0.40%</text>
<text text-anchor="middle" x="420.5" y="-202" font-family="Arial" font-size="10.00" fill="#0d0e73">13155520×</text>
</g>
<!-- 5&#45;&gt;16 -->
<g id="edge12" class="edge">
<title>5&#45;&gt;16</title>
<path fill="none" stroke="#0d0f73" stroke-width="0.5" d="M373.39,-367.58C360.47,-342.58 341.25,-303.02 329,-267 312.27,-217.8 327.44,-198.86 303,-153 301.95,-151.03 300.75,-149.09 299.46,-147.19"/>
<polygon fill="#0d0f73" stroke="#0d0f73" stroke-width="0.5" points="300.38,-146.38 297.34,-144.26 298.39,-147.81 300.38,-146.38"/>
<text text-anchor="middle" x="353.5" y="-259" font-family="Arial" font-size="10.00" fill="#0d0f73">0.48%</text>
<text text-anchor="middle" x="353.5" y="-248" font-family="Arial" font-size="10.00" fill="#0d0f73">13155520×</text>
</g>
<!-- 8 -->
<g id="node11" class="node">
<title>8</title>
<polygon fill="#0c8b92" stroke="#0c8b92" points="549.5,-328 450.5,-328 450.5,-276 549.5,-276 549.5,-328"/>
<text text-anchor="middle" x="500" y="-316" font-family="Arial" font-size="10.00" fill="#ffffff">core_bench_matrix</text>
<text text-anchor="middle" x="500" y="-305" font-family="Arial" font-size="10.00" fill="#ffffff">23.72%</text>
<text text-anchor="middle" x="500" y="-294" font-family="Arial" font-size="10.00" fill="#ffffff">(0.14%)</text>
<text text-anchor="middle" x="500" y="-283" font-family="Arial" font-size="10.00" fill="#ffffff">1644440×</text>
</g>
<!-- 5&#45;&gt;8 -->
<g id="edge9" class="edge">
<title>5&#45;&gt;8</title>
<path fill="none" stroke="#0c8b92" stroke-width="0.95" d="M418.48,-367.93C432.68,-356.61 449.54,-343.19 464.22,-331.5"/>
<polygon fill="#0c8b92" stroke="#0c8b92" stroke-width="0.95" points="465.54,-332.64 468.3,-328.25 463.4,-329.96 465.54,-332.64"/>
<text text-anchor="middle" x="478.5" y="-351" font-family="Arial" font-size="10.00" fill="#0c8b92">23.72%</text>
<text text-anchor="middle" x="478.5" y="-340" font-family="Arial" font-size="10.00" fill="#0c8b92">1644440×</text>
</g>
<!-- 10 -->
<g id="node12" class="node">
<title>10</title>
<polygon fill="#0c6289" stroke="#0c6289" points="208,-328 114,-328 114,-276 208,-276 208,-328"/>
<text text-anchor="middle" x="161" y="-316" font-family="Arial" font-size="10.00" fill="#ffffff">core_bench_state</text>
<text text-anchor="middle" x="161" y="-305" font-family="Arial" font-size="10.00" fill="#ffffff">17.17%</text>
<text text-anchor="middle" x="161" y="-294" font-family="Arial" font-size="10.00" fill="#ffffff">(2.09%)</text>
<text text-anchor="middle" x="161" y="-283" font-family="Arial" font-size="10.00" fill="#ffffff">1644440×</text>
</g>
<!-- 5&#45;&gt;10 -->
<g id="edge10" class="edge">
<title>5&#45;&gt;10</title>
<path fill="none" stroke="#0c6289" stroke-width="0.69" d="M354.41,-371.05C351.96,-369.89 349.48,-368.86 347,-368 312.36,-355.98 300.01,-369.89 265,-359 243.34,-352.26 220.98,-340.89 202.57,-330.15"/>
<polygon fill="#0c6289" stroke="#0c6289" stroke-width="0.69" points="203.2,-328.85 198.94,-328.01 201.74,-331.33 203.2,-328.85"/>
<text text-anchor="middle" x="286.5" y="-351" font-family="Arial" font-size="10.00" fill="#0c6289">17.17%</text>
<text text-anchor="middle" x="286.5" y="-340" font-family="Arial" font-size="10.00" fill="#0c6289">1644440×</text>
</g>
<!-- 9 -->
<g id="node13" class="node">
<title>9</title>
<polygon fill="#0c8a92" stroke="#0c8a92" points="662.5,-236 597.5,-236 597.5,-184 662.5,-184 662.5,-236"/>
<text text-anchor="middle" x="630" y="-224" font-family="Arial" font-size="10.00" fill="#ffffff">matrix_test</text>
<text text-anchor="middle" x="630" y="-213" font-family="Arial" font-size="10.00" fill="#ffffff">23.58%</text>
<text text-anchor="middle" x="630" y="-202" font-family="Arial" font-size="10.00" fill="#ffffff">(0.14%)</text>
<text text-anchor="middle" x="630" y="-191" font-family="Arial" font-size="10.00" fill="#ffffff">1644440×</text>
</g>
<!-- 8&#45;&gt;9 -->
<g id="edge14" class="edge">
<title>8&#45;&gt;9</title>
<path fill="none" stroke="#0c8a92" stroke-width="0.94" d="M536.21,-275.93C553.8,-263.75 574.92,-249.13 592.66,-236.85"/>
<polygon fill="#0c8a92" stroke="#0c8a92" stroke-width="0.94" points="594.04,-237.98 597.09,-233.78 592.09,-235.16 594.04,-237.98"/>
<text text-anchor="middle" x="601.5" y="-259" font-family="Arial" font-size="10.00" fill="#0c8a92">23.58%</text>
<text text-anchor="middle" x="601.5" y="-248" font-family="Arial" font-size="10.00" fill="#0c8a92">1644440×</text>
</g>
<!-- 10&#45;&gt;15 -->
<g id="edge23" class="edge">
<title>10&#45;&gt;15</title>
<path fill="none" stroke="#0d1074" stroke-width="0.5" d="M113.75,-291.3C83.72,-282.4 47.2,-265.89 29,-236 16.98,-216.26 27.15,-207.04 29,-184 30.11,-170.09 27.5,-165.35 34,-153 56.08,-111.03 97.46,-75.07 128.03,-52.43"/>
<polygon fill="#0d1074" stroke="#0d1074" stroke-width="0.5" points="128.86,-53.35 130.95,-50.29 127.4,-51.37 128.86,-53.35"/>
<text text-anchor="middle" x="58.5" y="-167" font-family="Arial" font-size="10.00" fill="#0d1074">0.81%</text>
<text text-anchor="middle" x="58.5" y="-156" font-family="Arial" font-size="10.00" fill="#0d1074">26311040×</text>
</g>
<!-- 10&#45;&gt;16 -->
<g id="edge24" class="edge">
<title>10&#45;&gt;16</title>
<path fill="none" stroke="#0d1174" stroke-width="0.5" d="M208.25,-276.29C211.49,-273.45 214.46,-270.36 217,-267 240.1,-236.47 226.6,-219.86 240,-184 244.56,-171.79 250.55,-158.75 256.04,-147.58"/>
<polygon fill="#0d1174" stroke="#0d1174" stroke-width="0.5" points="257.27,-147.86 257.73,-144.18 255.08,-146.77 257.27,-147.86"/>
<text text-anchor="middle" x="264.5" y="-213" font-family="Arial" font-size="10.00" fill="#0d1174">0.96%</text>
<text text-anchor="middle" x="264.5" y="-202" font-family="Arial" font-size="10.00" fill="#0d1174">26311040×</text>
</g>
<!-- 12 -->
<g id="node19" class="node">
<title>12</title>
<polygon fill="#0d4081" stroke="#0d4081" points="214.5,-236 107.5,-236 107.5,-184 214.5,-184 214.5,-236"/>
<text text-anchor="middle" x="161" y="-224" font-family="Arial" font-size="10.00" fill="#ffffff">core_state_transition</text>
<text text-anchor="middle" x="161" y="-213" font-family="Arial" font-size="10.00" fill="#ffffff">11.13%</text>
<text text-anchor="middle" x="161" y="-202" font-family="Arial" font-size="10.00" fill="#ffffff">(11.13%)</text>
<text text-anchor="middle" x="161" y="-191" font-family="Arial" font-size="10.00" fill="#ffffff">420976640×</text>
</g>
<!-- 10&#45;&gt;12 -->
<g id="edge22" class="edge">
<title>10&#45;&gt;12</title>
<path fill="none" stroke="#0d4081" stroke-width="0.5" d="M161,-275.93C161,-264.71 161,-251.42 161,-239.8"/>
<polygon fill="#0d4081" stroke="#0d4081" stroke-width="0.5" points="162.23,-239.75 161,-236.25 159.78,-239.75 162.23,-239.75"/>
<text text-anchor="middle" x="188" y="-259" font-family="Arial" font-size="10.00" fill="#0d4081">11.13%</text>
<text text-anchor="middle" x="188" y="-248" font-family="Arial" font-size="10.00" fill="#0d4081">420976640×</text>
</g>
<!-- 18 -->
<g id="node20" class="node">
<title>18</title>
<polygon fill="#0d1676" stroke="#0d1676" points="98.5,-236 33.5,-236 33.5,-184 98.5,-184 98.5,-236"/>
<text text-anchor="middle" x="66" y="-224" font-family="Arial" font-size="10.00" fill="#ffffff">crcu32</text>
<text text-anchor="middle" x="66" y="-213" font-family="Arial" font-size="10.00" fill="#ffffff">2.19%</text>
<text text-anchor="middle" x="66" y="-202" font-family="Arial" font-size="10.00" fill="#ffffff">(0.42%)</text>
<text text-anchor="middle" x="66" y="-191" font-family="Arial" font-size="10.00" fill="#ffffff">26311040×</text>
</g>
<!-- 10&#45;&gt;18 -->
<g id="edge25" class="edge">
<title>10&#45;&gt;18</title>
<path fill="none" stroke="#0d1676" stroke-width="0.5" d="M120.55,-275.81C116.86,-272.99 113.28,-270.03 110,-267 101.03,-258.71 92.44,-248.48 85.26,-239.04"/>
<polygon fill="#0d1676" stroke="#0d1676" stroke-width="0.5" points="86.16,-238.2 83.08,-236.14 84.2,-239.67 86.16,-238.2"/>
<text text-anchor="middle" x="134.5" y="-259" font-family="Arial" font-size="10.00" fill="#0d1676">2.19%</text>
<text text-anchor="middle" x="134.5" y="-248" font-family="Arial" font-size="10.00" fill="#0d1676">26311040×</text>
</g>
<!-- 9&#45;&gt;15 -->
<g id="edge17" class="edge">
<title>9&#45;&gt;15</title>
<path fill="none" stroke="#0d0e73" stroke-width="0.5" d="M597.13,-208.96C548.89,-207.05 459.2,-196.16 409,-144 382.61,-116.58 416.16,-86.59 388,-61 361.81,-37.2 261.15,-30.06 204.79,-27.92"/>
<polygon fill="#0d0e73" stroke="#0d0e73" stroke-width="0.5" points="204.69,-26.69 201.15,-27.78 204.6,-29.14 204.69,-26.69"/>
<text text-anchor="middle" x="430.5" y="-121" font-family="Arial" font-size="10.00" fill="#0d0e73">0.20%</text>
<text text-anchor="middle" x="430.5" y="-110" font-family="Arial" font-size="10.00" fill="#0d0e73">6577760×</text>
</g>
<!-- 9&#45;&gt;16 -->
<g id="edge18" class="edge">
<title>9&#45;&gt;16</title>
<path fill="none" stroke="#0d0e73" stroke-width="0.5" d="M597.41,-204.61C558.89,-199.46 492.82,-190.78 436,-184 399.59,-179.66 388.42,-187.62 354,-175 348.87,-173.12 328.76,-159.58 309.62,-146.28"/>
<polygon fill="#0d0e73" stroke="#0d0e73" stroke-width="0.5" points="309.88,-144.98 306.31,-143.98 308.48,-146.99 309.88,-144.98"/>
<text text-anchor="middle" x="375.5" y="-167" font-family="Arial" font-size="10.00" fill="#0d0e73">0.24%</text>
<text text-anchor="middle" x="375.5" y="-156" font-family="Arial" font-size="10.00" fill="#0d0e73">6577760×</text>
</g>
<!-- 13 -->
<g id="node14" class="node">
<title>13</title>
<polygon fill="#0d3b80" stroke="#0d3b80" points="599.5,-144 456.5,-144 456.5,-92 599.5,-92 599.5,-144"/>
<text text-anchor="middle" x="528" y="-132" font-family="Arial" font-size="10.00" fill="#ffffff">matrix_mul_matrix_bitextract</text>
<text text-anchor="middle" x="528" y="-121" font-family="Arial" font-size="10.00" fill="#ffffff">10.15%</text>
<text text-anchor="middle" x="528" y="-110" font-family="Arial" font-size="10.00" fill="#ffffff">(10.15%)</text>
<text text-anchor="middle" x="528" y="-99" font-family="Arial" font-size="10.00" fill="#ffffff">1644440×</text>
</g>
<!-- 9&#45;&gt;13 -->
<g id="edge15" class="edge">
<title>9&#45;&gt;13</title>
<path fill="none" stroke="#0d3b80" stroke-width="0.5" d="M601.59,-183.93C588.43,-172.32 572.77,-158.5 559.28,-146.6"/>
<polygon fill="#0d3b80" stroke="#0d3b80" stroke-width="0.5" points="560.05,-145.64 556.61,-144.25 558.43,-147.48 560.05,-145.64"/>
<text text-anchor="middle" x="612.5" y="-167" font-family="Arial" font-size="10.00" fill="#0d3b80">10.15%</text>
<text text-anchor="middle" x="612.5" y="-156" font-family="Arial" font-size="10.00" fill="#0d3b80">1644440×</text>
</g>
<!-- 14 -->
<g id="node15" class="node">
<title>14</title>
<polygon fill="#0d307d" stroke="#0d307d" points="705.5,-144 608.5,-144 608.5,-92 705.5,-92 705.5,-144"/>
<text text-anchor="middle" x="657" y="-132" font-family="Arial" font-size="10.00" fill="#ffffff">matrix_mul_matrix</text>
<text text-anchor="middle" x="657" y="-121" font-family="Arial" font-size="10.00" fill="#ffffff">7.79%</text>
<text text-anchor="middle" x="657" y="-110" font-family="Arial" font-size="10.00" fill="#ffffff">(7.79%)</text>
<text text-anchor="middle" x="657" y="-99" font-family="Arial" font-size="10.00" fill="#ffffff">1644440×</text>
</g>
<!-- 9&#45;&gt;14 -->
<g id="edge16" class="edge">
<title>9&#45;&gt;14</title>
<path fill="none" stroke="#0d307d" stroke-width="0.5" d="M637.52,-183.93C640.89,-172.71 644.87,-159.42 648.36,-147.8"/>
<polygon fill="#0d307d" stroke="#0d307d" stroke-width="0.5" points="649.59,-147.95 649.43,-144.25 647.25,-147.25 649.59,-147.95"/>
<text text-anchor="middle" x="667.5" y="-167" font-family="Arial" font-size="10.00" fill="#0d307d">7.79%</text>
<text text-anchor="middle" x="667.5" y="-156" font-family="Arial" font-size="10.00" fill="#0d307d">1644440×</text>
</g>
<!-- 17 -->
<g id="node16" class="node">
<title>17</title>
<polygon fill="#0d1a77" stroke="#0d1a77" points="783,-144 715,-144 715,-92 783,-92 783,-144"/>
<text text-anchor="middle" x="749" y="-132" font-family="Arial" font-size="10.00" fill="#ffffff">matrix_sum</text>
<text text-anchor="middle" x="749" y="-121" font-family="Arial" font-size="10.00" fill="#ffffff">3.20%</text>
<text text-anchor="middle" x="749" y="-110" font-family="Arial" font-size="10.00" fill="#ffffff">(3.20%)</text>
<text text-anchor="middle" x="749" y="-99" font-family="Arial" font-size="10.00" fill="#ffffff">6577760×</text>
</g>
<!-- 9&#45;&gt;17 -->
<g id="edge19" class="edge">
<title>9&#45;&gt;17</title>
<path fill="none" stroke="#0d1a77" stroke-width="0.5" d="M662.63,-192.85C672.09,-187.63 682.24,-181.5 691,-175 702.11,-166.76 713.28,-156.55 722.81,-147.1"/>
<polygon fill="#0d1a77" stroke="#0d1a77" stroke-width="0.5" points="724.1,-147.54 725.71,-144.2 722.37,-145.81 724.1,-147.54"/>
<text text-anchor="middle" x="737.5" y="-167" font-family="Arial" font-size="10.00" fill="#0d1a77">3.20%</text>
<text text-anchor="middle" x="737.5" y="-156" font-family="Arial" font-size="10.00" fill="#0d1a77">6577760×</text>
</g>
<!-- 19 -->
<g id="node17" class="node">
<title>19</title>
<polygon fill="#0d1074" stroke="#0d1074" points="881.5,-144 792.5,-144 792.5,-92 881.5,-92 881.5,-144"/>
<text text-anchor="middle" x="837" y="-132" font-family="Arial" font-size="10.00" fill="#ffffff">matrix_mul_vect</text>
<text text-anchor="middle" x="837" y="-121" font-family="Arial" font-size="10.00" fill="#ffffff">0.83%</text>
<text text-anchor="middle" x="837" y="-110" font-family="Arial" font-size="10.00" fill="#ffffff">(0.83%)</text>
<text text-anchor="middle" x="837" y="-99" font-family="Arial" font-size="10.00" fill="#ffffff">1644440×</text>
</g>
<!-- 9&#45;&gt;19 -->
<g id="edge20" class="edge">
<title>9&#45;&gt;19</title>
<path fill="none" stroke="#0d1074" stroke-width="0.5" d="M662.69,-204.09C689.94,-199.16 729.29,-190.1 761,-175 776.68,-167.53 792.41,-156.65 805.45,-146.46"/>
<polygon fill="#0d1074" stroke="#0d1074" stroke-width="0.5" points="806.37,-147.29 808.36,-144.16 804.85,-145.37 806.37,-147.29"/>
<text text-anchor="middle" x="817.5" y="-167" font-family="Arial" font-size="10.00" fill="#0d1074">0.83%</text>
<text text-anchor="middle" x="817.5" y="-156" font-family="Arial" font-size="10.00" fill="#0d1074">1644440×</text>
</g>
<!-- 20 -->
<g id="node18" class="node">
<title>20</title>
<polygon fill="#0d0f73" stroke="#0d0f73" points="985,-144 891,-144 891,-92 985,-92 985,-144"/>
<text text-anchor="middle" x="938" y="-132" font-family="Arial" font-size="10.00" fill="#ffffff">matrix_mul_const</text>
<text text-anchor="middle" x="938" y="-121" font-family="Arial" font-size="10.00" fill="#ffffff">0.56%</text>
<text text-anchor="middle" x="938" y="-110" font-family="Arial" font-size="10.00" fill="#ffffff">(0.56%)</text>
<text text-anchor="middle" x="938" y="-99" font-family="Arial" font-size="10.00" fill="#ffffff">1644440×</text>
</g>
<!-- 9&#45;&gt;20 -->
<g id="edge21" class="edge">
<title>9&#45;&gt;20</title>
<path fill="none" stroke="#0d0f73" stroke-width="0.5" d="M662.72,-207.4C704.99,-204.52 780.34,-196.57 841,-175 860.92,-167.91 881.43,-156.74 898.42,-146.24"/>
<polygon fill="#0d0f73" stroke="#0d0f73" stroke-width="0.5" points="899.45,-147.04 901.77,-144.14 898.15,-144.96 899.45,-147.04"/>
<text text-anchor="middle" x="906.5" y="-167" font-family="Arial" font-size="10.00" fill="#0d0f73">0.56%</text>
<text text-anchor="middle" x="906.5" y="-156" font-family="Arial" font-size="10.00" fill="#0d0f73">1644440×</text>
</g>
<!-- 18&#45;&gt;15 -->
<g id="edge27" class="edge">
<title>18&#45;&gt;15</title>
<path fill="none" stroke="#0d1074" stroke-width="0.5" d="M79.9,-183.69C98.41,-150.01 131.05,-90.61 150.38,-55.42"/>
<polygon fill="#0d1074" stroke="#0d1074" stroke-width="0.5" points="151.6,-55.75 152.21,-52.09 149.45,-54.57 151.6,-55.75"/>
<text text-anchor="middle" x="154.5" y="-121" font-family="Arial" font-size="10.00" fill="#0d1074">0.81%</text>
<text text-anchor="middle" x="154.5" y="-110" font-family="Arial" font-size="10.00" fill="#0d1074">26311040×</text>
</g>
<!-- 18&#45;&gt;16 -->
<g id="edge28" class="edge">
<title>18&#45;&gt;16</title>
<path fill="none" stroke="#0d1174" stroke-width="0.5" d="M98.88,-186.31C100.26,-185.51 101.64,-184.74 103,-184 110.84,-179.76 168.69,-156.24 177,-153 195.04,-145.96 215.21,-138.6 232.22,-132.54"/>
<polygon fill="#0d1174" stroke="#0d1174" stroke-width="0.5" points="232.69,-133.67 235.58,-131.34 231.87,-131.36 232.69,-133.67"/>
<text text-anchor="middle" x="201.5" y="-167" font-family="Arial" font-size="10.00" fill="#0d1174">0.96%</text>
<text text-anchor="middle" x="201.5" y="-156" font-family="Arial" font-size="10.00" fill="#0d1174">26311040×</text>
</g>
</g>
</svg>
